<svg preserveAspectRatio="none" width="100%" height="100%" overflow="visible" style="display: block;" viewBox="0 0 26 25.0006" fill="none" xmlns="http://www.w3.org/2000/svg">
<path id="Vector" d="M24 6.00056H15.4137L19.7075 1.70806C19.8951 1.52042 20.0006 1.26592 20.0006 1.00056C20.0006 0.735192 19.8951 0.480697 19.7075 0.293056C19.5199 0.105415 19.2654 0 19 0C18.7346 0 18.4801 0.105415 18.2925 0.293056L13 5.58681L7.7075 0.293056C7.61459 0.200146 7.50429 0.126445 7.3829 0.0761627C7.2615 0.02588 7.13139 0 7 0C6.86861 0 6.7385 0.02588 6.6171 0.0761627C6.49571 0.126445 6.38541 0.200146 6.2925 0.293056C6.10486 0.480697 5.99944 0.735192 5.99944 1.00056C5.99944 1.26592 6.10486 1.52042 6.2925 1.70806L10.5863 6.00056H2C1.46957 6.00056 0.960859 6.21127 0.585786 6.58634C0.210714 6.96142 0 7.47012 0 8.00056V23.0006C0 23.531 0.210714 24.0397 0.585786 24.4148C0.960859 24.7898 1.46957 25.0006 2 25.0006H24C24.5304 25.0006 25.0391 24.7898 25.4142 24.4148C25.7893 24.0397 26 23.531 26 23.0006V8.00056C26 7.47012 25.7893 6.96142 25.4142 6.58634C25.0391 6.21127 24.5304 6.00056 24 6.00056ZM24 23.0006H2V8.00056H24V23.0006Z" fill="var(--fill-0, #DBBD6B)"/>
</svg>
