<svg width="100%" height="100%" overflow="visible" style="display: block;" viewBox="0 0 16.5 17.875" fill="none" xmlns="http://www.w3.org/2000/svg">
<path id="Vector" d="M15.125 1.375H13.0625V0.6875C13.0625 0.505164 12.9901 0.330295 12.8611 0.201364C12.7322 0.0724328 12.5573 0 12.375 0C12.1927 0 12.0178 0.0724328 11.8889 0.201364C11.7599 0.330295 11.6875 0.505164 11.6875 0.6875V1.375H4.8125V0.6875C4.8125 0.505164 4.74007 0.330295 4.61114 0.201364C4.4822 0.0724328 4.30734 0 4.125 0C3.94266 0 3.7678 0.0724328 3.63886 0.201364C3.50993 0.330295 3.4375 0.505164 3.4375 0.6875V1.375H1.375C1.01033 1.375 0.660591 1.51987 0.402728 1.77773C0.144866 2.03559 0 2.38533 0 2.75V16.5C0 16.8647 0.144866 17.2144 0.402728 17.4723C0.660591 17.7301 1.01033 17.875 1.375 17.875H15.125C15.4897 17.875 15.8394 17.7301 16.0973 17.4723C16.3551 17.2144 16.5 16.8647 16.5 16.5V2.75C16.5 2.38533 16.3551 2.03559 16.0973 1.77773C15.8394 1.51987 15.4897 1.375 15.125 1.375ZM3.4375 2.75V3.4375C3.4375 3.61984 3.50993 3.7947 3.63886 3.92364C3.7678 4.05257 3.94266 4.125 4.125 4.125C4.30734 4.125 4.4822 4.05257 4.61114 3.92364C4.74007 3.7947 4.8125 3.61984 4.8125 3.4375V2.75H11.6875V3.4375C11.6875 3.61984 11.7599 3.7947 11.8889 3.92364C12.0178 4.05257 12.1927 4.125 12.375 4.125C12.5573 4.125 12.7322 4.05257 12.8611 3.92364C12.9901 3.7947 13.0625 3.61984 13.0625 3.4375V2.75H15.125V5.5H1.375V2.75H3.4375ZM15.125 16.5H1.375V6.875H15.125V16.5ZM9.28125 9.96875C9.28125 10.1727 9.22077 10.3721 9.10745 10.5417C8.99414 10.7113 8.83308 10.8434 8.64464 10.9215C8.45621 10.9996 8.24886 11.02 8.04881 10.9802C7.84877 10.9404 7.66502 10.8422 7.5208 10.698C7.37657 10.5537 7.27836 10.37 7.23857 10.1699C7.19877 9.96989 7.2192 9.76254 7.29725 9.57411C7.3753 9.38567 7.50748 9.22461 7.67707 9.1113C7.84666 8.99798 8.04604 8.9375 8.25 8.9375C8.5235 8.9375 8.78581 9.04615 8.9792 9.23955C9.1726 9.43294 9.28125 9.69525 9.28125 9.96875ZM13.0625 9.96875C13.0625 10.1727 13.002 10.3721 12.8887 10.5417C12.7754 10.7113 12.6143 10.8434 12.4259 10.9215C12.2375 10.9996 12.0301 11.02 11.8301 10.9802C11.63 10.9404 11.4463 10.8422 11.302 10.698C11.1578 10.5537 11.0596 10.37 11.0198 10.1699C10.98 9.96989 11.0004 9.76254 11.0785 9.57411C11.1566 9.38567 11.2887 9.22461 11.4583 9.1113C11.6279 8.99798 11.8273 8.9375 12.0312 8.9375C12.3048 8.9375 12.5671 9.04615 12.7605 9.23955C12.9539 9.43294 13.0625 9.69525 13.0625 9.96875ZM5.5 13.4062C5.5 13.6102 5.43952 13.8096 5.3262 13.9792C5.21289 14.1488 5.05183 14.2809 4.86339 14.359C4.67496 14.4371 4.46761 14.4575 4.26756 14.4177C4.06752 14.3779 3.88377 14.2797 3.73955 14.1355C3.59532 13.9912 3.49711 13.8075 3.45732 13.6074C3.41752 13.4074 3.43795 13.2 3.516 13.0116C3.59405 12.8232 3.72623 12.6621 3.89582 12.5488C4.06541 12.4355 4.26479 12.375 4.46875 12.375C4.74225 12.375 5.00456 12.4836 5.19795 12.677C5.39135 12.8704 5.5 13.1327 5.5 13.4062ZM9.28125 13.4062C9.28125 13.6102 9.22077 13.8096 9.10745 13.9792C8.99414 14.1488 8.83308 14.2809 8.64464 14.359C8.45621 14.4371 8.24886 14.4575 8.04881 14.4177C7.84877 14.3779 7.66502 14.2797 7.5208 14.1355C7.37657 13.9912 7.27836 13.8075 7.23857 13.6074C7.19877 13.4074 7.2192 13.2 7.29725 13.0116C7.3753 12.8232 7.50748 12.6621 7.67707 12.5488C7.84666 12.4355 8.04604 12.375 8.25 12.375C8.5235 12.375 8.78581 12.4836 8.9792 12.677C9.1726 12.8704 9.28125 13.1327 9.28125 13.4062ZM13.0625 13.4062C13.0625 13.6102 13.002 13.8096 12.8887 13.9792C12.7754 14.1488 12.6143 14.2809 12.4259 14.359C12.2375 14.4371 12.0301 14.4575 11.8301 14.4177C11.63 14.3779 11.4463 14.2797 11.302 14.1355C11.1578 13.9912 11.0596 13.8075 11.0198 13.6074C10.98 13.4074 11.0004 13.2 11.0785 13.0116C11.1566 12.8232 11.2887 12.6621 11.4583 12.5488C11.6279 12.4355 11.8273 12.375 12.0312 12.375C12.3048 12.375 12.5671 12.4836 12.7605 12.677C12.9539 12.8704 13.0625 13.1327 13.0625 13.4062Z" fill="var(--fill-0, #DBBD6B)"/>
</svg>
