<svg width="100%" height="100%" overflow="visible" style="display: block;" viewBox="0 0 12.375 17.875" fill="none" xmlns="http://www.w3.org/2000/svg">
<path id="Vector" d="M12.375 4.43781V1.375C12.375 1.01033 12.2301 0.660591 11.9723 0.402728C11.7144 0.144866 11.3647 0 11 0H1.375C1.01033 0 0.660591 0.144866 0.402728 0.402728C0.144866 0.660591 0 1.01033 0 1.375V4.46875C0.000464483 4.68213 0.0503679 4.8925 0.145795 5.08335C0.241221 5.27421 0.379575 5.44035 0.55 5.56875L5.04195 8.9375L0.55 12.3062C0.379575 12.4346 0.241221 12.6008 0.145795 12.7916C0.0503679 12.9825 0.000464483 13.1929 0 13.4062V16.5C0 16.8647 0.144866 17.2144 0.402728 17.4723C0.660591 17.7301 1.01033 17.875 1.375 17.875H11C11.3647 17.875 11.7144 17.7301 11.9723 17.4723C12.2301 17.2144 12.375 16.8647 12.375 16.5V13.4372C12.3744 13.2248 12.3249 13.0153 12.2303 12.8251C12.1356 12.635 11.9984 12.4692 11.8293 12.3406L7.32789 8.9375L11.8293 5.53438C11.9986 5.40597 12.1359 5.2402 12.2305 5.04999C12.3252 4.85978 12.3746 4.65027 12.375 4.43781ZM10.5041 13.0625H1.83305L6.1875 9.79688L10.5041 13.0625ZM1.375 16.5V14.4375H11V16.5H1.375ZM11 4.43781L6.1875 8.07812L1.375 4.46875V1.375H11V4.43781Z" fill="var(--fill-0, #DBBD6B)"/>
</svg>
