<svg preserveAspectRatio="none" width="100%" height="100%" overflow="visible" style="display: block;" viewBox="0 0 15 19" fill="none" xmlns="http://www.w3.org/2000/svg">
<path id="Vector" d="M11.4838 11.734L11.9289 11.26C14.3547 8.68761 14.3547 4.51305 11.9289 1.94061C10.7495 0.699643 9.16934 0 7.50012 0C5.8309 0 4.25078 0.699482 3.04908 1.94061C0.623304 4.51305 0.623304 8.68761 3.04908 11.26L3.49414 11.734C1.31318 12.4335 0 13.6746 0 15.0736C0 17.2624 3.29373 19 7.5 19C11.7063 19 15 17.2851 15 15.0736C15.0002 13.6746 13.6649 12.4335 11.4838 11.734H11.4838ZM7.50016 3.38486C8.90228 3.38486 10.0594 4.53565 10.0594 5.97978C10.0594 7.42412 8.90228 8.55238 7.50016 8.55238C6.09804 8.55238 4.94089 7.4016 4.94089 5.95746C4.94089 4.51313 6.09804 3.38486 7.50016 3.38486V3.38486ZM7.50016 17.8717C3.73899 17.8717 1.11292 16.4051 1.11292 15.0736C1.11292 14.1259 2.40372 13.1555 4.36226 12.6591L7.07739 15.5249C7.1887 15.6377 7.3222 15.7054 7.4779 15.7054C7.63377 15.7054 7.76727 15.6377 7.87842 15.5249L10.6158 12.6591C12.5743 13.1555 13.8651 14.1257 13.8651 15.0736C13.8873 16.7208 10.5268 17.8717 7.50012 17.8717H7.50016Z" fill="var(--fill-0, #DBBD6B)"/>
</svg>
