<svg preserveAspectRatio="none" width="100%" height="100%" overflow="visible" style="display: block;" viewBox="0 0 20.625 16.5122" fill="none" xmlns="http://www.w3.org/2000/svg">
<path id="Vector" d="M20.2615 3.52954C20.1519 3.47077 20.0283 3.44286 19.9041 3.44876C19.7798 3.45466 19.6595 3.49416 19.5559 3.56305L16.5 5.59633V3.4436C16.5 3.07893 16.3551 2.72919 16.0973 2.47133C15.8394 2.21347 15.4897 2.0686 15.125 2.0686H8.34109C8.15876 2.0686 7.98389 2.14103 7.85496 2.26996C7.72603 2.3989 7.65359 2.57376 7.65359 2.7561C7.65359 2.93844 7.72603 3.1133 7.85496 3.24224C7.98389 3.37117 8.15876 3.4436 8.34109 3.4436H15.125V10.9743C15.125 11.1566 15.1974 11.3315 15.3264 11.4604C15.4553 11.5894 15.6302 11.6618 15.8125 11.6618C15.9948 11.6618 16.1697 11.5894 16.2986 11.4604C16.4276 11.3315 16.5 11.1566 16.5 10.9743V10.9202L19.5559 12.9577C19.6694 13.0314 19.8022 13.07 19.9375 13.0686C20.1198 13.0686 20.2947 12.9962 20.4236 12.8672C20.5526 12.7383 20.625 12.5634 20.625 12.3811V4.1311C20.6241 4.0074 20.5899 3.88623 20.5259 3.78035C20.4619 3.67448 20.3706 3.58783 20.2615 3.52954ZM19.25 11.0963L16.5 9.26329V7.24891L19.25 5.42016V11.0963ZM3.25875 0.231256C3.19837 0.163199 3.12509 0.107803 3.04315 0.0682762C2.96121 0.0287498 2.87224 0.00588012 2.78139 0.000992777C2.69054 -0.00389456 2.59963 0.00929752 2.51392 0.0398045C2.42821 0.0703115 2.34941 0.117527 2.28208 0.178713C2.21475 0.2399 2.16024 0.313841 2.1217 0.396252C2.08315 0.478662 2.06135 0.567903 2.05756 0.658801C2.05376 0.749699 2.06804 0.840447 2.09957 0.925785C2.1311 1.01112 2.17926 1.08935 2.24125 1.15594L3.07055 2.0686H1.375C1.01033 2.0686 0.660591 2.21347 0.402728 2.47133C0.144866 2.72919 0 3.07893 0 3.4436V13.0686C0 13.4333 0.144866 13.783 0.402728 14.0409C0.660591 14.2987 1.01033 14.4436 1.375 14.4436H14.3206L15.9913 16.2809C16.0516 16.349 16.1249 16.4044 16.2069 16.4439C16.2888 16.4834 16.3778 16.5063 16.4686 16.5112C16.5595 16.5161 16.6504 16.5029 16.7361 16.4724C16.8218 16.4419 16.9006 16.3947 16.9679 16.3335C17.0352 16.2723 17.0898 16.1984 17.1283 16.1159C17.1668 16.0335 17.1886 15.9443 17.1924 15.8534C17.1962 15.7625 17.182 15.6718 17.1504 15.5864C17.1189 15.5011 17.0707 15.4228 17.0087 15.3563L3.25875 0.231256ZM1.375 13.0686V3.4436H4.32094L13.0711 13.0686H1.375Z" fill="var(--fill-0, #DBBD6B)"/>
</svg>
