<svg preserveAspectRatio="none" width="100%" height="100%" overflow="visible" style="display: block;" viewBox="0 0 15.125 19.2498" fill="none" xmlns="http://www.w3.org/2000/svg">
<path id="Vector" d="M7.5625 4.125C6.88263 4.125 6.21802 4.32661 5.65273 4.70432C5.08743 5.08204 4.64684 5.6189 4.38666 6.24703C4.12649 6.87515 4.05841 7.56631 4.19105 8.23312C4.32369 8.89993 4.65108 9.51244 5.13182 9.99318C5.61256 10.4739 6.22507 10.8013 6.89188 10.9339C7.55869 11.0666 8.24985 10.9985 8.87797 10.7383C9.5061 10.4782 10.043 10.0376 10.4207 9.47227C10.7984 8.90698 11 8.24237 11 7.5625C11 6.65082 10.6378 5.77648 9.99318 5.13182C9.34852 4.48716 8.47418 4.125 7.5625 4.125ZM7.5625 9.625C7.15458 9.625 6.75581 9.50404 6.41664 9.27741C6.07746 9.05078 5.8131 8.72866 5.657 8.35178C5.50089 7.97491 5.46005 7.56021 5.53963 7.16013C5.61921 6.76004 5.81565 6.39254 6.10409 6.10409C6.39254 5.81565 6.76004 5.61921 7.16013 5.53963C7.56021 5.46005 7.97491 5.50089 8.35178 5.657C8.72866 5.8131 9.05078 6.07746 9.27741 6.41664C9.50404 6.75581 9.625 7.15458 9.625 7.5625C9.625 8.10951 9.4077 8.63411 9.02091 9.02091C8.63411 9.4077 8.10951 9.625 7.5625 9.625ZM7.5625 0C5.5575 0.00227454 3.63527 0.799766 2.21752 2.21752C0.799766 3.63527 0.00227454 5.5575 0 7.5625C0 10.2609 1.24695 13.1209 3.60938 15.834C4.67089 17.0599 5.86562 18.1639 7.17148 19.1254C7.28708 19.2064 7.4248 19.2498 7.56594 19.2498C7.70708 19.2498 7.84479 19.2064 7.96039 19.1254C9.26385 18.1635 10.4563 17.0596 11.5156 15.834C13.8746 13.1209 15.125 10.2609 15.125 7.5625C15.1227 5.5575 14.3252 3.63527 12.9075 2.21752C11.4897 0.799766 9.5675 0.00227454 7.5625 0ZM7.5625 17.7031C6.14195 16.5859 1.375 12.4824 1.375 7.5625C1.375 5.92147 2.0269 4.34766 3.18728 3.18728C4.34766 2.0269 5.92147 1.375 7.5625 1.375C9.20353 1.375 10.7773 2.0269 11.9377 3.18728C13.0981 4.34766 13.75 5.92147 13.75 7.5625C13.75 12.4807 8.98305 16.5859 7.5625 17.7031Z" fill="var(--fill-0, #DBBD6B)"/>
</svg>
