<svg width="100%" height="100%" overflow="visible" style="display: block;" viewBox="0 0 24.0235 23.0007" fill="none" xmlns="http://www.w3.org/2000/svg">
<path id="Vector" d="M24.0235 12.0007C24.0235 12.2659 23.9181 12.5203 23.7306 12.7078C23.5431 12.8954 23.2887 13.0007 23.0235 13.0007H9.02349C8.75828 13.0007 8.50392 12.8954 8.31639 12.7078C8.12885 12.5203 8.02349 12.2659 8.02349 12.0007C8.02349 11.7355 8.12885 11.4811 8.31639 11.2936C8.50392 11.1061 8.75828 11.0007 9.02349 11.0007H23.0235C23.2887 11.0007 23.5431 11.1061 23.7306 11.2936C23.9181 11.4811 24.0235 11.7355 24.0235 12.0007ZM9.02349 5.00072H23.0235C23.2887 5.00072 23.5431 4.89536 23.7306 4.70782C23.9181 4.52029 24.0235 4.26593 24.0235 4.00072C24.0235 3.7355 23.9181 3.48115 23.7306 3.29361C23.5431 3.10607 23.2887 3.00072 23.0235 3.00072H9.02349C8.75828 3.00072 8.50392 3.10607 8.31639 3.29361C8.12885 3.48115 8.02349 3.7355 8.02349 4.00072C8.02349 4.26593 8.12885 4.52029 8.31639 4.70782C8.50392 4.89536 8.75828 5.00072 9.02349 5.00072ZM23.0235 19.0007H9.02349C8.75828 19.0007 8.50392 19.1061 8.31639 19.2936C8.12885 19.4811 8.02349 19.7355 8.02349 20.0007C8.02349 20.2659 8.12885 20.5203 8.31639 20.7078C8.50392 20.8954 8.75828 21.0007 9.02349 21.0007H23.0235C23.2887 21.0007 23.5431 20.8954 23.7306 20.7078C23.9181 20.5203 24.0235 20.2659 24.0235 20.0007C24.0235 19.7355 23.9181 19.4811 23.7306 19.2936C23.5431 19.1061 23.2887 19.0007 23.0235 19.0007ZM1.47099 2.89572L2.02349 2.61822V9.00072C2.02349 9.26593 2.12885 9.52029 2.31639 9.70782C2.50392 9.89536 2.75828 10.0007 3.02349 10.0007C3.28871 10.0007 3.54306 9.89536 3.7306 9.70782C3.91814 9.52029 4.02349 9.26593 4.02349 9.00072V1.00072C4.02362 0.830172 3.98012 0.66243 3.89714 0.513435C3.81416 0.36444 3.69445 0.239142 3.54939 0.149453C3.40434 0.059764 3.23875 0.0086633 3.06838 0.00100808C2.89801 -0.00664714 2.72851 0.0293976 2.57599 0.105716L0.575993 1.10572C0.338624 1.2244 0.158125 1.43252 0.0742024 1.68429C0.0326482 1.80895 0.0160547 1.94058 0.02537 2.07165C0.0346852 2.20273 0.0697266 2.33068 0.128493 2.44822C0.18726 2.56575 0.2686 2.67056 0.367872 2.75665C0.467143 2.84275 0.5824 2.90845 0.707063 2.95001C0.958831 3.03393 1.23362 3.0144 1.47099 2.89572ZM5.99474 15.5907C5.93945 15.1947 5.80464 14.8139 5.59842 14.4713C5.3922 14.1286 5.11883 13.8312 4.79474 13.597C4.14563 13.1256 3.33938 12.9236 2.54469 13.0331C1.75 13.1426 1.02845 13.5551 0.530993 14.1845C0.340865 14.4286 0.190279 14.7011 0.0847434 14.992C0.0296343 15.1172 0.000797303 15.2523 1.63008e-05 15.3891C-0.000764702 15.5259 0.0265266 15.6614 0.0802024 15.7872C0.133878 15.9131 0.212797 16.0265 0.312078 16.1206C0.411358 16.2147 0.52889 16.2875 0.657402 16.3343C0.785915 16.3812 0.922676 16.4012 1.05923 16.3931C1.19578 16.385 1.32921 16.3489 1.45128 16.2872C1.57335 16.2255 1.68146 16.1394 1.76892 16.0342C1.85637 15.929 1.92132 15.807 1.95974 15.6757C1.99474 15.5798 2.04451 15.49 2.10724 15.4095C2.28365 15.1897 2.538 15.0464 2.81739 15.0093C3.09678 14.9723 3.37969 15.0444 3.60724 15.2107C3.71671 15.2881 3.80928 15.387 3.87933 15.5013C3.94939 15.6157 3.99546 15.743 4.01474 15.8757C4.03238 16.0032 4.02409 16.1328 3.99037 16.257C3.95665 16.3812 3.89818 16.4972 3.81849 16.5982C3.81485 16.6026 3.81151 16.6072 3.80849 16.612L0.222243 21.402C0.111112 21.5506 0.043546 21.7273 0.0271085 21.9122C0.0106711 22.097 0.0460105 22.2828 0.129172 22.4488C0.212333 22.6147 0.340034 22.7542 0.49798 22.8517C0.655927 22.9492 0.837887 23.0008 1.02349 23.0007H5.02349C5.28871 23.0007 5.54306 22.8954 5.7306 22.7078C5.91814 22.5203 6.02349 22.2659 6.02349 22.0007C6.02349 21.7355 5.91814 21.4811 5.7306 21.2936C5.54306 21.1061 5.28871 21.0007 5.02349 21.0007H3.02349L5.40849 17.8095C5.6503 17.498 5.82684 17.141 5.92757 16.7598C6.02829 16.3786 6.05114 15.981 5.99474 15.5907Z" fill="var(--fill-0, #DBBD6B)"/>
</svg>
