<svg width="100%" height="100%" overflow="visible" style="display: block;" viewBox="0 0 16.5 18.5625" fill="none" xmlns="http://www.w3.org/2000/svg">
<path id="Vector" d="M15.125 6.1875H5.5V4.125C5.5 3.39565 5.78973 2.69618 6.30546 2.18046C6.82118 1.66473 7.52065 1.375 8.25 1.375C9.57086 1.375 10.7594 2.32031 11.0138 3.57414C11.0515 3.75132 11.1577 3.90642 11.3092 4.00575C11.4607 4.10508 11.6453 4.1406 11.8228 4.1046C12.0003 4.06859 12.1565 3.96397 12.2573 3.81347C12.3581 3.66296 12.3955 3.47875 12.3612 3.30086C11.9728 1.38789 10.2438 0 8.25 0C7.15633 0.00113746 6.10778 0.4361 5.33444 1.20944C4.5611 1.98278 4.12614 3.03133 4.125 4.125V6.1875H1.375C1.01033 6.1875 0.660591 6.33237 0.402728 6.59023C0.144866 6.84809 0 7.19783 0 7.5625V17.1875C0 17.5522 0.144866 17.9019 0.402728 18.1598C0.660591 18.4176 1.01033 18.5625 1.375 18.5625H15.125C15.4897 18.5625 15.8394 18.4176 16.0973 18.1598C16.3551 17.9019 16.5 17.5522 16.5 17.1875V7.5625C16.5 7.19783 16.3551 6.84809 16.0973 6.59023C15.8394 6.33237 15.4897 6.1875 15.125 6.1875ZM15.125 17.1875H1.375V7.5625H15.125V17.1875Z" fill="var(--fill-0, #DBBD6B)"/>
</svg>
