<svg preserveAspectRatio="none" width="100%" height="100%" overflow="visible" style="display: block;" viewBox="0 0 138.279 41.3197" fill="none" xmlns="http://www.w3.org/2000/svg">
<g id="Group">
<path id="Vector" d="M16.2735 24.158C16.2735 29.8053 16.2526 35.4631 16.2422 41.1104H11.934C11.934 31.9179 11.9236 22.7357 11.9132 13.5536L27.9463 30.5897V13.9406H32.2962V41.1104L16.2631 24.158H16.2735Z" fill="url(#paint0_linear_0_20)"/>
<path id="Vector_2" d="M0 41.1102C0.0208629 34.1557 0.0312955 27.2116 0.0521584 20.257L4.71502 25.2455C4.70458 30.5372 4.69415 35.8289 4.69415 41.1102H0.0104317H0Z" fill="url(#paint1_linear_0_20)"/>
<path id="Vector_3" d="M0.0623974 13.062C0.0623974 11.7652 0.0623974 10.4789 0.0623974 9.18212C7.61477 6.11792 15.1567 3.05373 22.6986 0C22.6882 5.96105 22.6674 11.9326 22.6465 17.9041C21.0087 16.1471 19.371 14.3902 17.7333 12.6333V7.35197L4.71482 12.5182C4.71482 14.3588 4.71482 16.1994 4.71482 18.0505L0.0519657 13.062H0.0623974Z" fill="url(#paint2_linear_0_20)"/>
<path id="Vector_4" d="M62.3693 37.743V18.4481H58.4575V40.9641H67.6372V37.743H62.3693Z" fill="var(--fill-0, #F5F4EC)"/>
<path id="Vector_5" d="M106.39 18.4481H102.478V40.9641H106.39V18.4481Z" fill="var(--fill-0, #F5F4EC)"/>
<path id="Vector_6" d="M138.279 21.6376V18.4583H127.086V40.9639H138.279V37.7429H130.998V31.1543H137.288V27.9751H130.998V21.6376H138.279Z" fill="var(--fill-0, #F5F4EC)"/>
<path id="Vector_7" d="M54.0562 35.7871C52.4289 37.1885 50.3426 37.9415 48.1937 37.9101C43.6664 37.9101 40.4953 35.1178 40.4953 29.7738C40.4953 24.4298 43.6664 21.512 48.2563 21.512C51.0415 21.512 52.5853 22.631 53.9727 23.635L55.9234 21.0937C53.6806 19.1276 51.1458 18.1341 47.9016 18.1341C41.1316 18.1341 36.5418 22.5369 36.5418 29.7738C36.5418 37.0107 41.1316 41.288 47.8703 41.288C51.3336 41.288 53.8371 40.19 56.0173 38.2971L54.0562 35.7871V35.7871Z" fill="var(--fill-0, #F5F4EC)"/>
<path id="Vector_8" d="M80.5302 18.4481V33.7272C80.5302 37.0424 78.8299 37.6175 77.2861 37.6175C75.7422 37.6175 74.0523 37.0424 74.0523 33.7272V18.4481H70.1405V33.9572C70.1405 39.9078 73.7289 41.2883 77.2861 41.2883C80.8432 41.2883 84.4733 39.9078 84.4733 33.9572V18.4481H80.5302Z" fill="var(--fill-0, #F5F4EC)"/>
<path id="Vector_9" d="M91.1186 23.8966C91.1186 22.1188 92.506 21.2821 94.3523 21.2821C95.552 21.3135 96.7099 21.6795 97.7008 22.3488L99.2343 19.6507C97.6487 18.6153 95.7919 18.0924 93.9142 18.1343C90.1589 18.1343 87.4259 20.069 87.4259 24.0849C87.4259 31.2904 95.8962 30.8093 95.8962 35.2122C95.8962 37.2619 94.5818 38.0776 92.8502 38.0776C91.3377 38.0358 89.846 37.6384 88.5212 36.9168L87.0503 39.866C88.6463 40.8699 90.7013 41.2882 93.038 41.2882C96.4178 41.2882 99.6202 39.4581 99.6202 35.0762C99.6202 27.7452 91.1186 28.3308 91.1186 23.8966V23.8966Z" fill="var(--fill-0, #F5F4EC)"/>
<path id="Vector_10" d="M120.984 18.4481L117.427 28.9374C116.759 30.8408 116.759 31.3114 116.717 31.6669C116.686 31.3114 116.686 30.8408 115.945 28.906L112.388 18.4481H108.372L116.759 41.3197L124.968 18.4481H120.984V18.4481Z" fill="var(--fill-0, #F5F4EC)"/>
</g>
<defs>
<linearGradient id="paint0_linear_0_20" x1="53.5812" y1="42.2851" x2="44.2033" y2="5.33646" gradientUnits="userSpaceOnUse">
<stop stop-color="#DBBD6B"/>
<stop offset="0.2" stop-color="#C4952D"/>
<stop offset="0.33" stop-color="#B37F2C"/>
<stop offset="0.59" stop-color="#FDF1A2"/>
<stop offset="1" stop-color="#B37F2C"/>
</linearGradient>
<linearGradient id="paint1_linear_0_20" x1="9.63866" y1="41.9991" x2="-4.98848" y2="24.3826" gradientUnits="userSpaceOnUse">
<stop stop-color="#DBBD6B"/>
<stop offset="0.2" stop-color="#C4952D"/>
<stop offset="0.33" stop-color="#B37F2C"/>
<stop offset="0.59" stop-color="#FDF1A2"/>
<stop offset="1" stop-color="#B37F2C"/>
</linearGradient>
<linearGradient id="paint2_linear_0_20" x1="46.3474" y1="18.82" x2="42.577" y2="-6.3774" gradientUnits="userSpaceOnUse">
<stop stop-color="#DBBD6B"/>
<stop offset="0.2" stop-color="#C4952D"/>
<stop offset="0.33" stop-color="#B37F2C"/>
<stop offset="0.59" stop-color="#FDF1A2"/>
<stop offset="1" stop-color="#B37F2C"/>
</linearGradient>
</defs>
</svg>
